{"title":"The Brokenwood Mysteries S04E04 HDTV X264","magnet":"magnet:?xt=urn:btih:5a3c373c1f8cb3380bbc7fe2a215024be0e2e9e8&dn=The+Brokenwood+Mysteries+S04E04+HDTV+X264&tr=udp%3A%2F%2Ftracker.leechers-paradise.org%3A6969&tr=udp%3A%2F%2Fzer0day.ch%3A1337&tr=udp%3A%2F%2Fopen.demonii.com%3A1337&tr=udp%3A%2F%2Ftracker.coppersurfer.tk%3A6969&tr=udp%3A%2F%2Fexodus.desync.com%3A6969","uploader":"86jw","categoryP":"video","categoryS":"hd___tv_shows","size":"596603909","seeders":"8","leechers":"0","description":"Media InFo\r\n\r\nComplete name               : D:The Brokenwood Mysteries S04E04.mkv\r\nFormat                      : Matroska\r\nFormat version              : Version 4 / Version 2\r\nFile size                   : 569 MiB\r\nDuration                    : 1 h 30 min\r\nOverall bit rate            : 880 kb/s\r\nEncoded date                : UTC 2017-11-21 02:22:58\r\n\r\nideo\r\nID                          : 1\r\nFormat                      : AVC\r\nFormat/Info                 : Advanced Video Codec\r\nFormat profile              : <a href=\"/cdn-cgi/l/email-protection\" class=\"__cf_email__\" data-cfemail=\"5e163739361e126d\">[email&#xA0;protected]</a>\r\nFormat settings             : CABAC / 4 Ref Frames\r\nFormat settings, CABAC      : Yes\r\nFormat settings, RefFrames  : 4 frames\r\nCodec ID                    : V_MPEG4/ISO/AVC\r\nDuration                    : 1 h 30 min\r\nBit rate                    : 750 kb/s\r\nWidth                       : 720 pixels\r\nHeight                      : 400 pixels\r\nDisplay aspect ratio        : 16:9\r\nFrame rate mode             : Constant\r\nFrame rate                  : 25.000 FPS\r\nColor space                 : YUV\r\nChroma subsampling          : 4:2:0\r\nBit depth                   : 8 bits\r\nScan type                   : Progressive\r\nBits/(Pixel*Frame)          : 0.104\r\nStream size                 : 485 MiB (85%)\r\n             \r\n\r\nAudio\r\nID                          : 2\r\nFormat                      : AAC\r\nFormat/Info                 : Advanced Audio Codec\r\nFormat profile              : LC\r\nCodec ID                    : A_AAC-2\r\nDuration                    : 1 h 30 min\r\nBit rate                    : 128 kb/s\r\nChannel(s)                  : 2 channels\r\nChannel positions           : Front: L R\r\nSampling rate               : 48.0 kHz\r\nFrame rate                  : 46.875 FPS (1024 SPF)\r\nCompression mode            : Lossy\r\nDelay relative to video     : 9 ms\r\nStream size                 : 82.7 MiB (15%)\r\nDefault                     : Yes\r\nForced                      : No","last_updated":"2017-11-21T12:06:41.350Z","parsed":{"xt":"urn:btih:5a3c373c1f8cb3380bbc7fe2a215024be0e2e9e8","dn":"The Brokenwood Mysteries S04E04 HDTV X264","tr":["udp://exodus.desync.com:6969","udp://open.demonii.com:1337","udp://tracker.coppersurfer.tk:6969","udp://tracker.leechers-paradise.org:6969","udp://zer0day.ch:1337"],"infoHash":"5a3c373c1f8cb3380bbc7fe2a215024be0e2e9e8","infoHashBuffer":{"type":"Buffer","data":[90,60,55,60,31,140,179,56,11,188,127,226,162,21,2,75,224,226,233,232]},"name":"The Brokenwood Mysteries S04E04 HDTV X264","announce":["udp://exodus.desync.com:6969","udp://open.demonii.com:1337","udp://tracker.coppersurfer.tk:6969","udp://tracker.leechers-paradise.org:6969","udp://zer0day.ch:1337"],"urlList":[]}}